<svg width="32" height="34" viewBox="0 0 32 34" fill="none" xmlns="http://www.w3.org/2000/svg">
<path fill-rule="evenodd" clip-rule="evenodd" d="M24.672 15.614C27.5661 15.614 30 13.1145 30 10.1089C30 7.10331 27.5866 4.625 24.672 4.625C21.7473 4.625 19.344 7.10331 19.344 10.1089C19.344 13.1251 21.7473 15.614 24.672 15.614ZM24.672 13.7157C24.2527 13.7157 23.8846 13.3782 23.8846 12.9353V10.8999H22.0234C21.6143 10.8999 21.2666 10.5308 21.2564 10.1089C21.2666 9.68709 21.6143 9.32852 22.0234 9.32852H23.8846V7.29314C23.8846 6.82912 24.2527 6.51274 24.672 6.51274C25.1015 6.51274 25.4697 6.82912 25.4697 7.29314V9.32852H27.3207C27.74 9.32852 28.0774 9.67654 28.0774 10.1089C28.0774 10.5308 27.74 10.8999 27.3207 10.8999H25.4697V12.9353C25.4697 13.3782 25.0913 13.7157 24.672 13.7157ZM22.2688 22.4689C22.821 22.4689 23.3119 22.047 23.3119 21.4037C23.3119 20.771 22.821 20.3491 22.2688 20.3491H10.672C10.2527 20.3491 9.99708 20.0433 9.92549 19.5898L9.7721 18.5036H22.3915C23.4346 18.5036 24.1402 18.0817 24.5595 17.3224L24.6516 17.1431C20.8473 17.0798 17.851 13.9582 17.851 10.1089C17.851 9.782 17.8714 9.45508 17.9123 9.12815H8.47334L8.33017 8.13682C8.17677 7.13495 7.76771 6.62874 6.55077 6.62874H3.12491C2.52155 6.62874 2 7.16659 2 7.79935C2 8.44266 2.52155 8.96996 3.12491 8.96996H6.12126L7.66545 19.8007C7.90066 21.467 8.75968 22.4689 10.3857 22.4689H22.2688ZM11.2549 27.879C12.298 27.879 13.1366 27.0247 13.1366 25.9385C13.1366 24.8628 12.298 23.998 11.2549 23.998C10.2118 23.998 9.36304 24.8628 9.36304 25.9385C9.36304 27.0247 10.2118 27.879 11.2549 27.879ZM20.6019 27.879C21.645 27.879 22.4836 27.0247 22.4836 25.9385C22.4836 24.8628 21.645 23.998 20.6019 23.998C19.5588 23.998 18.71 24.8628 18.71 25.9385C18.71 27.0247 19.5588 27.879 20.6019 27.879Z" fill="#F5F6F6"/>
</svg>