<svg width="32" height="32" viewBox="0 0 32 32" fill="none" xmlns="http://www.w3.org/2000/svg">
<path fill-rule="evenodd" clip-rule="evenodd" d="M8 13.092C8 8.61441 11.6144 5 16.092 5C20.5695 5 24.1839 8.61441 24.1839 13.092C24.1839 18.4866 16.092 26.5785 16.092 26.5785C16.092 26.5785 8 18.4866 8 13.092ZM21.4866 13.092C21.4866 10.1249 19.086 7.69732 16.092 7.69732C13.1249 7.69732 10.6973 10.1249 10.6973 13.092C10.6973 16.086 13.1249 18.4866 16.092 18.4866C19.086 18.4866 21.4866 16.086 21.4866 13.092Z" fill="#212B36"/>
<mask id="mask0" mask-type="alpha" maskUnits="userSpaceOnUse" x="8" y="5" width="17" height="22">
<path fill-rule="evenodd" clip-rule="evenodd" d="M8 13.092C8 8.61441 11.6144 5 16.092 5C20.5695 5 24.1839 8.61441 24.1839 13.092C24.1839 18.4866 16.092 26.5785 16.092 26.5785C16.092 26.5785 8 18.4866 8 13.092ZM21.4866 13.092C21.4866 10.1249 19.086 7.69732 16.092 7.69732C13.1249 7.69732 10.6973 10.1249 10.6973 13.092C10.6973 16.086 13.1249 18.4866 16.092 18.4866C19.086 18.4866 21.4866 16.086 21.4866 13.092Z" fill="white"/>
</mask>
<g mask="url(#mask0)">
</g>
</svg>
