<?xml version="1.0" encoding="utf-8"?>
<!-- Generator: Adobe Illustrator 19.2.1, SVG Export Plug-In . SVG Version: 6.00 Build 0)  -->
<svg version="1.1" id="layer" xmlns="http://www.w3.org/2000/svg" xmlns:xlink="http://www.w3.org/1999/xlink" x="0px" y="0px"
	 viewBox="0 0 652 652" style="enable-background:new 0 0 652 652;" xml:space="preserve">
<style type="text/css">
	.st0{fill:#D71920;}
	.st1{fill:#FFFFFF;}
</style>
<g>
	<path class="st0" d="M575.1,380.2c2-3.4,3-7.5,3-12v-28.3c0-13.1-9.7-22.6-23.2-22.6h-13.4c-2.8,0-5.3,0.4-7.6,1.2
		c-5.3-1.8-11.9-3.1-20.2-3.1c-0.5,0-1,0-1.5,0c1.8-8.8,1.8-18.5-3.2-26.9C506,283,497.5,269,480.8,269l-19,0.2
		c-4.8,0-10.2-1.3-13.9,0.6c-3.1-57.7-13.2-99.2-30.4-134.7c-19.6-40.3-48.1-63.4-78.3-63.4c-27.9,0.1-45.6,17.9-51.3,38.4
		c-6.5-4.1-13.9-6.6-22.2-6.6c-10.3,0-36.5,5.1-61.5,50.1c-20.7,37.3-28.7,81.3-37.5,155.8l-0.2,2l-1.2,8.1l-8.1-21.6
		c-1-3.4-3.6-9.8-9.4-15.4c-8.2-8-20.2-8.8-25-8.8H86.8c-12.4,0-22.6,10-22.6,22.4c0,0.6,0,4.3-0.1,8.1c0,4.3-0.1,8.8-0.1,9.6
		c0,6.9,2.8,12.9,7.5,17c-3.6,9.3-8.9,23.3-17,44.6c-1.4,3.5-2.7,7-3.8,10c-4.5,0.9-8.5,3.1-11.7,6.4c-3.9,4.2-6.1,9.8-6,15.6V425
		c0,2.9,0.6,10.2,6.7,16.3c4.2,4.2,9.9,6.6,16,6.6h51.5c5.5,0,10.4-1.6,14.1-4.4c3,2.3,6.8,3.8,11.3,4.3c-10,9.6-15.9,22-16.5,36.5
		c-0.7,15.4,5.1,30.1,16.8,42.2c15,15.7,40,27.7,74.2,35.6c27.3,6.4,59.9,9.8,91.7,9.8h0h1.2c38.6-0.1,94.6-4.4,141.7-24.1
		c39.3-16.4,61.5-39.6,62.7-65.3c0.3-7.9-0.7-22.2-10.3-35h0.3c3.4,0,6.6-0.7,9.5-2c3,1.1,6.2,2,9.6,2.5c4,0.6,8.5,1,12.8,1
		c8,0,19.4-1.1,28.8-6.3c7.3-4.1,22.5-12.5,25.2-34.1C581.5,398,579.6,388.2,575.1,380.2"/>
</g>
<polygon class="st0" points="583.7,336 583.7,338.4 587.3,338.4 587.3,347.9 590,347.9 590,338.4 593.6,338.4 593.6,336 "/>
<polygon class="st0" points="605.2,336 602.1,341 598.9,336 596.1,336 596.1,347.9 598.7,347.9 598.7,339.9 601.9,345.1 
	602.2,345.1 605.5,339.9 605.5,347.9 608,347.9 608,336 "/>
<g>
	<path class="st1" d="M561.3,367v-28.3c0-2.6-1.4-3-3.6-3h-13.4c-1.5,0-1.7,0.9-1.7,2.7v4.5c0,1.4-0.9,1.1-2.6-0.5
		c-2-2-7.4-8.3-22.5-8.3c-16.3,0-22,5.4-26.6,10.5c-4.5,5.1-11,17.1-5.1,29.4c5.9,12.3,23.9,14.8,30.2,16.2
		c7.5,1.6,18.4,5.5,15.2,11.6c-3.3,6-13.6,4.4-19.5,2.5c-5.9-1.9-9.1-7.3-9.4-8.6c-0.5-1.7-2.2-3.1-4.5-3.1h-15.2
		c-2.7,0-3.3,1.4-3.3,3.4v27.9c0,1.9,0.4,3.2,2.4,3.2H497c2,0,2.4-0.9,2.4-2.3s-0.1-3.1-0.1-4.5c0-1.5,0.8-2.1,2.2-0.7
		c1.4,1.4,9.2,5.9,17.9,7.3c8.7,1.4,20.1,1.6,27.7-2.6c7.5-4.2,13.5-9.2,14.8-19.3c1.4-11.1-2.6-20.8-15.7-25.4
		c-13.1-4.5-25.6-7.1-30.1-9.7c-5.1-2.9-6-11.1,1.2-13.1c6.4-1.8,12,0.2,15.9,2.4c3.3,1.9,4.9,6.1,5.2,7.9c0.3,1.8,0.5,3.7,3.2,3.7
		h16C560.3,370.7,561.3,369.6,561.3,367 M488.8,324.2c0,0,17-39.8-8.3-39.8h-21.9c-4.2,0-4,4.1-4,4.1s0,16.9,0,19.2
		c0,2.1-0.6,4.5,4.2,4.5h16.8C487.4,312.2,488.8,324.2,488.8,324.2 M476.3,335.1h-44.4c-2.5,0-2.8,1-2.8,3.4V356
		c0,1.9,0.6,2.8,2.9,2.8h3.3c1.5,0,3.3,0.1,2.4,2.5c-0.9,2.4-12.1,37.9-12.7,39.8c-0.6,1.9-5,1.7-5.8-0.3c-0.8-2-10-37.9-10.5-39.7
		c-0.5-1.8-0.3-1.9,1.4-1.9c1.7,0,4.6,0.4,4.6-2.2v-19c0-2.2-0.2-2.9-2.8-2.9h-39.8c-3.3,0-3,1.8-3,3.8v17.4c0,2.2,0.8,2.9,2.8,2.9
		h4c1.5,0,2.8-0.3,3.7,2.4c0.9,2.7,18.4,53.4,20.4,59.7c2,6.3,8.3,5.7,12.1,5.7c3.4,0,5.1-0.1,4.5,2c-0.6,2.1-3.3,11.9-6.6,14.4
		c-3.4,2.6-8.9,3-12.7,1.4c-3.8-1.6-8-5.5-8.8-6.1c-0.8-0.6-1.9-0.5-2.9,0.8c-1,1.3-8.3,10.5-10.4,13.5c-2.1,3-1.6,3.2,0.3,5
		c1.9,1.8,11.9,11.7,31.2,11.7c20.6,0,28.2-16.9,31.7-26.3c3.6-9.4,28.5-77.9,29.4-81.1s1.9-3.3,3.6-3.3h5.2c2,0,2.5-0.9,2.5-3.1
		v-17.9C479.2,335.8,478.5,335.1,476.3,335.1 M426.5,309.3c-0.2-68.8-10.3-121.1-29.3-160.2c-15.9-32.7-37.6-51.5-59.5-51.5
		c-25,0.1-32.6,20.6-33.2,31.4c-0.4,9.4,4.9,19.9,10,30c4,7.8,7.7,15.2,7.5,20c-0.1,1.4-1.1,5.2-3.8,5.2c-2.6,0-9.2-10.8-13.6-17.9
		c-10.3-16.6-23-37.3-39.1-37.3c-5.2,0-23.7,2.8-43.5,39.2c-16.6,30.4-26.4,73.3-33.1,141.1c0.1,1.1,0.8,3.1,2.7,3.1h20.2
		c2.4,0,3.3-1.7,3.4-2.7c4.6-39,7.1-63.4,12.5-84.8c12.7-50.8,30.9-64.9,35.8-64.9c6.2,0,12.2,10,18.5,20.5c0.9,1.5,1.8,3,2.8,4.6
		c8.3,13.5,18.4,27.8,34.2,27.8c16.2,0,28.2-16.4,28.9-31.1c0.7-15.9-6.2-27.7-11.3-36.4c-2.9-4.9-5.4-9.2-5.3-12.2
		c0.2-4.7,3.5-5.7,6.2-5.7c9.3,0,24.9,9.7,38.2,36.8c20.9,42.5,25.4,100.2,25.4,145.1c0.1,1,1,2.8,3.4,2.8h19.2
		C425.6,312.2,426.4,310.3,426.5,309.3 M183.6,424.6v-17.8c0-1.3-1.3-3.3-3.5-3.3c-0.8,0-4.6,0-5.3,0c-3.8,0-4.6-3.5-4.6-3.5
		l-36.2-97.2c0,0-0.9-4-4.3-7.4c-3.5-3.4-11.4-3.3-11.4-3.3H86.7c-1.7,0-3,1.5-3,2.8c0,1.3-0.1,16.1-0.1,17.7c0,1.6,0.8,3.2,3.7,3.2
		h7.8c2.5,0,2.5,1.9,1.4,3.9c-1.1,2-31,81-31.4,81.8c-1.1,2.4-2.7,2.1-2.7,2.1h-5.9c-2.6,0-2.5,2.6-2.5,2.6v18c0,0,0,3.2,3.1,3.2
		h44.6c2.9,0,2.9-0.8,2.9-2.8v-18.6c0-2.1-1.2-2.4-3-2.4h-8c-2.4,0-3-1.5-2.6-3c0.2-0.6,2.7-7.9,3.6-10c0.8-2.1,1.2-2.2,3.5-2.2
		l34.9-0.1c3.7,0,3.9,1.1,4.4,2.4s2.4,6.6,2.9,7.9c1.3,3.8,0.1,4.9-1.5,4.9h-7.8c-1.2,0-2.9,0.6-2.9,2.8V425c0,1.5,0.7,2.2,3.2,2.2
		h50.3C182.9,427.2,183.6,425.6,183.6,424.6 M126.8,367.9l-20.2,0.1c-3,0-2.6-1.8-2.1-2.9c0.5-1.2,9.1-27.2,9.7-28.9
		c0.6-1.7,2.3-2.8,3.3-0.4c1,2.4,10.2,27.7,10.8,29.1C128.9,366.3,128.8,367.9,126.8,367.9 M263.5,294.9v19c0,1.3,0.7,1.9,2.5,1.9
		h3.6c2.5,0,2.7,0.8,2.7,3.4v80.5c0,3.6-0.3,3.7-2.8,3.7h-5.2c-2.8,0-3.1,1-3.1,3.3V424c0,2.5,1,3.2,3.6,3.2h30.8c2.7,0,3-1.1,3-2.9
		v-5.5c0-1.8,2.2-0.8,3.3,0.5c1.2,1.3,5.6,7,20.7,8.3c12.3,1.1,26-2.2,34-12.6c6.2-8,10.9-15.7,10.9-36.1s-9.5-33.3-19.1-39.1
		c-9.6-5.8-22.4-7-30.6-4.9c-7.3,2-13.9,7.2-14.8,8.3c-0.9,1.1-2.7,2-2.7,0.1v-48.3c0-2.5-1.1-3.2-2.6-3.2H266
		C263.7,292.1,263.5,292.9,263.5,294.9 M301.4,381.5c0-12.3,5.5-22.4,18.2-22.4c12.7,0,18.2,10.4,18.2,23.1
		c0,12.7-7.9,20.8-18.7,20.8S301.4,393.8,301.4,381.5 M197.3,401.3c0,0,0.2,2.2-1.2,2.2H191c-2.2,0-2.2,1.2-2.2,2.2v19.5
		c0,0-0.3,2,2.6,2h43.3c1.4,0,2.7-0.8,2.7-2.9v-18.5c0-2-0.1-2.6-2.6-2.6h-4c-1.9,0-3.1,0.1-3.1-1.8v-15.2c0-6.7,2.3-10.8,5.8-14.4
		c3.5-3.5,10.3-7.4,17.1-8c6.4-0.5,9.3,0.1,12.2,0.4c1.8,0.2,2.8-0.7,2.8-2.1V337c0-1.5-0.4-2.9-3.5-3.3c-3.1-0.3-15.4,1.3-24.8,7.7
		c-8.1,5.6-11.7,14.9-12.4,15.9c-0.7,1-1.9,1.4-1.9-0.3v-18.7c0-1.9-0.7-3.3-2.9-3.3h-28.8c-1.8,0-2.6,0.1-2.6,2.4v19.3c0,2,2,2,2,2
		s2.3,0.1,4.1,0.1c1.8,0,2.5,0.5,2.5,2.6V401.3z M136.9,488.7c-0.4,10,3.3,19.2,11.2,27.4c12,12.5,34,22.8,63.6,29.7
		c25.5,5.9,56.1,9.2,86,9.2h1.1c36.3-0.1,88.8-4.1,132.2-22.2c31-13,47.6-28.9,49.9-47.4c1.6-13.2-1.9-24.9-18-32.6
		c0,0-1.3-0.1-2.1,1.2c-3.2,5.6-6.3,10.7-10.9,16.6c-1.7,2.2,0.3,3.8,0.3,3.8c5.8,4.5,6.5,10.6,1.7,16.4c-4.3,5.1-10.4,12.3-36,22.4
		c-21.1,8.4-58.2,18.4-115.6,18.5h-1.1c-66.7,0-117-16.1-132.2-31.9c-3.2-3.3-4.7-6.6-4.6-9.6c0.4-9.5,13.6-14.8,37.2-14.9h0.4
		c6.4,0,12.8,0.4,19.1,1.2c4.7,0.6,9.3,1.3,13.7,2.1c10.1,1.9,19.9,4.6,29.2,7.6v0c13.3,4.4,23.7,9,30.7,12c4,1.7,6.6,2.8,8.1,3.2
		c2.3,0.7,4.5,1,6.5,0.9h0.1c5.6-0.4,10-4.2,11.1-9.6c1-4.7-0.5-9.9-5.9-12.4c-14.4-6.7-40-17.4-70.3-24.3c-8.5-2-17-3.6-25.2-4.6
		c0,0-0.1,0-0.1,0c-6.4-0.8-12.6-1.2-18.6-1.2h-0.3C161.3,450.1,137.9,464.9,136.9,488.7"/>
</g>
</svg>
