<svg width="188" height="24" viewBox="0 0 188 24" fill="none" xmlns="http://www.w3.org/2000/svg">
<path d="M0 18.3766H8.09729V16.7571H5.77891V10.91H8.83031V12.2908H10.7055V7.73931H8.83031V9.12011H5.77891V3.51167H10.6714V6.20508H13.6035V1.72174H0V3.3412H1.6706V16.7571H0V18.3766ZM20.5075 16.8935C19.1437 16.8935 18.3766 16.0582 18.3766 14.3876V9.83608C18.3766 8.16548 19.1437 7.33018 20.5075 7.33018C21.8712 7.33018 22.6383 8.16548 22.6383 9.83608V14.3876C22.6383 16.0582 21.8712 16.8935 20.5075 16.8935ZM20.5075 18.6664C24.2237 18.6664 26.7125 16.2798 26.7125 12.1033C26.7125 7.94387 24.2237 5.5573 20.5075 5.5573C16.7912 5.5573 14.3024 7.94387 14.3024 12.1204C14.3024 16.2798 16.7912 18.6664 20.5075 18.6664ZM34.9633 16.8935C33.6166 16.8935 32.8494 16.0582 32.8494 14.3876V9.83608C32.8494 8.16548 33.6166 7.33018 34.9633 7.33018C36.327 7.33018 37.0941 8.16548 37.0941 9.83608V14.3876C37.0941 16.0582 36.327 16.8935 34.9633 16.8935ZM34.9633 18.6664C38.6965 18.6664 41.1683 16.2798 41.1683 12.1033C41.1683 7.94387 38.6965 5.5573 34.9633 5.5573C31.247 5.5573 28.7582 7.94387 28.7582 12.1204C28.7582 16.2798 31.247 18.6664 34.9633 18.6664ZM48.3792 18.6664C50.1009 18.6664 51.2942 17.6436 51.7204 16.5185H51.8738V18.6664L57.1925 17.5924V16.1605L55.7264 15.8536V0L50.4419 1.05691V2.48885L51.8738 2.7957V7.65407H51.7204C51.2942 6.56307 50.2032 5.5573 48.3792 5.5573C45.2596 5.5573 43.3163 8.21662 43.3163 12.1204C43.3163 16.0071 45.2596 18.6664 48.3792 18.6664ZM49.6918 16.3992C48.4303 16.3992 47.4075 15.4957 47.4075 13.791V10.3986C47.4075 8.71098 48.4303 7.8075 49.6918 7.8075C50.9533 7.8075 51.8738 8.69394 51.8738 9.97246V14.2171C51.8738 15.5127 50.9533 16.3992 49.6918 16.3992ZM70.455 16.8935C69.0912 16.8935 68.3412 16.0582 68.3412 14.3876V9.83608C68.3412 8.16548 69.0912 7.33018 70.455 7.33018C71.8187 7.33018 72.5858 8.16548 72.5858 9.83608V14.3876C72.5858 16.0582 71.8187 16.8935 70.455 16.8935ZM70.455 18.6664C74.1883 18.6664 76.6601 16.2798 76.6601 12.1033C76.6601 7.94387 74.1883 5.5573 70.455 5.5573C66.7388 5.5573 64.2499 7.94387 64.2499 12.1204C64.2499 16.2798 66.7388 18.6664 70.455 18.6664ZM78.45 18.3766H85.0642V16.7571H83.7516V9.88722C83.7516 8.59166 84.8767 8.0632 85.9677 8.0632C87.3144 8.0632 87.8258 8.71098 87.8258 10.3134V16.7571H86.5132V18.3766H93.1274V16.7571H91.6955V10.1941C91.6955 7.10857 90.5533 5.5573 87.4508 5.5573C85.371 5.5573 84.28 6.66535 83.8198 7.94387H83.6834V5.5573L78.45 6.61421V8.04615L79.8819 8.353V16.7571H78.45V18.3766ZM106.492 18.6664C109.646 18.6664 111.18 16.6037 111.743 15.0183L110.345 14.2001C109.885 15.3252 108.828 16.2798 107.072 16.2798C105.333 16.2798 104.293 15.2059 104.293 13.1773V10.6202C104.293 8.353 105.418 7.10857 107.379 7.10857C108.078 7.10857 108.453 7.21085 108.759 7.29609V7.44951C108.231 7.70521 107.72 8.25072 107.72 9.08602C107.72 10.0918 108.401 10.7907 109.629 10.7907C110.822 10.7907 111.572 10.0236 111.572 8.77917C111.572 6.9381 109.885 5.5573 106.901 5.5573C103.134 5.5573 100.219 7.87568 100.219 12.1033C100.219 15.8025 102.384 18.6664 106.492 18.6664ZM119.38 16.8935C118.016 16.8935 117.266 16.0582 117.266 14.3876V9.83608C117.266 8.16548 118.016 7.33018 119.38 7.33018C120.743 7.33018 121.511 8.16548 121.511 9.83608V14.3876C121.511 16.0582 120.743 16.8935 119.38 16.8935ZM119.38 18.6664C123.113 18.6664 125.585 16.2798 125.585 12.1033C125.585 7.94387 123.113 5.5573 119.38 5.5573C115.663 5.5573 113.175 7.94387 113.175 12.1204C113.175 16.2798 115.663 18.6664 119.38 18.6664ZM132.693 18.6664C134.773 18.6664 135.881 17.5583 136.324 16.2798H136.478V18.6664L141.694 17.6095V16.1775L140.262 15.8707V5.5573L134.961 6.61421V8.04615L136.393 8.353V14.3365C136.393 15.632 135.284 16.1605 134.176 16.1605C132.847 16.1605 132.318 15.5127 132.318 13.9103V5.5573L127.017 6.61421V8.04615L128.449 8.353V14.0296C128.449 17.1151 129.591 18.6664 132.693 18.6664ZM142.99 23.1497H150.201V21.5303H148.291V16.5696H148.428C148.854 17.6606 149.962 18.6664 151.769 18.6664C154.888 18.6664 156.832 16.0071 156.832 12.1204C156.832 8.21662 154.888 5.5573 151.769 5.5573C150.047 5.5573 148.854 6.58012 148.428 7.70521H148.291V5.5573L142.99 6.63126V8.0632L144.422 8.37004V21.5303H142.99V23.1497ZM150.286 16.3992C149.024 16.3992 148.121 15.5127 148.121 14.2171V9.97246C148.121 8.69394 149.024 7.8075 150.286 7.8075C151.547 7.8075 152.587 8.71098 152.587 10.3986V13.791C152.587 15.4957 151.547 16.3992 150.286 16.3992ZM165.065 16.8935C163.702 16.8935 162.935 16.0582 162.935 14.3876V9.83608C162.935 8.16548 163.702 7.33018 165.065 7.33018C166.429 7.33018 167.179 8.16548 167.179 9.83608V14.3876C167.179 16.0582 166.429 16.8935 165.065 16.8935ZM165.065 18.6664C168.782 18.6664 171.271 16.2798 171.271 12.1033C171.271 7.94387 168.782 5.5573 165.065 5.5573C161.332 5.5573 158.86 7.94387 158.86 12.1204C158.86 16.2798 161.332 18.6664 165.065 18.6664ZM173.06 18.3766H179.675V16.7571H178.362V9.88722C178.362 8.59166 179.47 8.0632 180.578 8.0632C181.908 8.0632 182.436 8.71098 182.436 10.3134V16.7571H181.124V18.3766H187.738V16.7571H186.306V10.1941C186.306 7.10857 185.164 5.5573 182.061 5.5573C179.982 5.5573 178.873 6.66535 178.43 7.94387H178.277V5.5573L173.06 6.61421V8.04615L174.492 8.353V16.7571H173.06V18.3766Z" fill="white"/>
</svg>
