<svg width="33" height="58" viewBox="0 0 33 58" fill="none" xmlns="http://www.w3.org/2000/svg">
<path d="M31.0566 21.468L29.9306 21.163V17.9916C29.9306 17.4428 29.4301 16.9548 28.8671 16.9548H24.4882C23.1746 14.8812 22.2362 13.4785 20.4221 13.4785H12.5401C10.726 13.4785 9.78765 14.8203 8.47398 16.9548H4.15764C3.53209 16.9548 3.0942 17.4428 3.0942 17.9916V21.163L1.90564 21.468C0.529415 21.8339 -0.283809 23.1756 0.0915249 24.5174C0.404303 25.7981 1.78053 26.591 3.0942 26.347V37.7518C3.0942 38.3007 3.59464 38.7886 4.15764 38.7886H10.0379L7.97354 54.7676C7.78587 56.3532 8.91187 57.756 10.5383 57.9999H10.9137C12.415 57.9999 13.6661 56.9631 13.8538 55.4994L15.9807 38.7276H17.0441L19.171 55.4384C19.3587 56.9021 20.6098 57.9389 22.1111 57.9389H22.4864C24.1129 57.756 25.2389 56.2923 25.0512 54.7066L22.9869 38.7276H28.8671C29.4927 38.7276 29.9306 38.2397 29.9306 37.6908V26.286C30.1182 26.347 30.2434 26.347 30.431 26.347C31.557 26.347 32.6205 25.6152 32.9332 24.4564C33.246 23.1756 32.4328 21.7729 31.0566 21.468ZM27.7411 36.654H5.22109V19.0284H27.7411V36.654Z" fill="white"/>
<path d="M16.4801 11.9537C19.8658 11.9537 22.6105 9.27777 22.6105 5.97685C22.6105 2.67593 19.8658 0 16.4801 0C13.0943 0 10.3496 2.67593 10.3496 5.97685C10.3496 9.27777 13.0943 11.9537 16.4801 11.9537Z" fill="white"/>
<path d="M14.2282 26.895C14.4158 26.834 14.5409 26.6511 14.4158 26.4681C14.2907 26.1632 14.2282 25.8582 14.2282 25.5533C14.2282 25.3093 14.3533 25.0044 14.4784 24.6995C14.5409 24.5165 14.6035 24.3945 14.7286 24.2115C14.7912 24.0286 14.8537 23.7846 14.9163 23.5407C14.9163 23.2967 14.9163 23.0528 14.7912 22.8088C14.7286 22.6868 14.7286 22.5649 14.666 22.5039C14.6035 22.3819 14.5409 22.3209 14.4158 22.1989C14.3533 22.138 14.2282 22.077 14.103 22.077C13.9154 22.1379 13.7903 22.3209 13.8528 22.4429V22.5649C13.8528 22.6259 13.9154 22.6868 13.9154 22.7478C13.9154 22.8088 13.9779 22.8698 13.9779 22.9308V23.3577C13.9779 23.4797 13.9154 23.6017 13.8528 23.7236L13.6026 24.2115C13.54 24.3945 13.4775 24.5775 13.4149 24.8214C13.3524 25.0654 13.3524 25.2483 13.3524 25.4923C13.4149 25.9802 13.6026 26.4071 13.9154 26.7121C13.9154 26.895 14.103 26.956 14.2282 26.895ZM16.6053 26.7121C16.7929 26.6511 16.9181 26.4681 16.7929 26.2851C16.6678 25.9802 16.6053 25.6753 16.6053 25.3703C16.6053 25.1264 16.7304 24.8214 16.8555 24.5165C16.9181 24.3335 16.9806 24.2116 17.1057 24.0286C17.1683 23.8456 17.2308 23.6017 17.2934 23.3577C17.2934 23.1138 17.2934 22.8698 17.1683 22.6259C17.1057 22.4429 17.1057 22.3819 17.0432 22.2599C16.9806 22.1379 16.9181 22.077 16.7929 21.955C16.7304 21.894 16.6053 21.833 16.4802 21.833C16.2925 21.894 16.1674 22.077 16.2299 22.1989V22.3209C16.2299 22.3819 16.2925 22.4429 16.2925 22.5039C16.2925 22.5649 16.3551 22.6259 16.3551 22.6868V23.1138C16.3551 23.2357 16.2925 23.3577 16.2299 23.4797L15.9797 24.0896C15.9172 24.2725 15.8546 24.4555 15.7921 24.6995C15.7295 24.9434 15.7295 25.1264 15.7295 25.3703C15.7921 25.8582 15.9797 26.2851 16.2925 26.5901C16.2925 26.7121 16.4802 26.7731 16.6053 26.7121ZM18.9824 26.895C19.1701 26.834 19.2952 26.6511 19.1701 26.4681C19.0449 26.1632 18.9824 25.8582 18.9824 25.5533C18.9824 25.3093 19.1075 25.0044 19.2326 24.6995C19.2952 24.5165 19.3577 24.3945 19.4828 24.2115C19.5454 24.0286 19.6079 23.7846 19.6705 23.5407C19.6705 23.2967 19.6705 23.0528 19.5454 22.8088C19.4828 22.6868 19.4828 22.5649 19.4203 22.5039C19.3577 22.3819 19.2952 22.3209 19.1701 22.1989C19.1075 22.138 18.9824 22.077 18.8573 22.077C18.6696 22.1379 18.5445 22.3209 18.6071 22.4429V22.5649C18.6071 22.6259 18.6696 22.6868 18.6696 22.7478C18.6696 22.8088 18.7322 22.8698 18.7322 22.9308V23.3577C18.7322 23.4797 18.6696 23.6017 18.6071 23.7236L18.3568 24.2725C18.2943 24.4555 18.2317 24.6385 18.1692 24.8824C18.1066 25.1264 18.1066 25.3093 18.1066 25.5533C18.1692 26.0412 18.3568 26.4681 18.6696 26.7731C18.6696 26.895 18.8573 26.956 18.9824 26.895ZM10.9753 30.3104C11.2255 32.323 12.5392 33.8477 16.4802 33.8477C20.3586 33.8477 21.6723 32.323 21.9851 30.3104C22.2978 30.0664 22.5481 29.8225 22.5481 29.5175C22.5481 27.8099 17.1683 27.8099 16.5427 27.8099C15.9172 27.8099 10.5374 27.8708 10.5374 29.5175C10.4748 29.8225 10.6625 30.0664 10.9753 30.3104ZM16.4802 28.7247C19.3577 28.7247 21.0467 29.2126 21.4846 29.5175C21.1093 29.8225 19.4203 30.3104 16.4802 30.3104C13.54 30.3104 11.9136 29.8225 11.4757 29.5175C11.9136 29.1516 13.6026 28.7247 16.4802 28.7247Z" fill="white"/>
</svg>
